<?xml version="1.0" encoding="utf-8"?>
<!-- Generator: Adobe Illustrator 27.5.0, SVG Export Plug-In . SVG Version: 6.00 Build 0)  -->
<svg version="1.1" id="Layer_1" xmlns="http://www.w3.org/2000/svg" xmlns:xlink="http://www.w3.org/1999/xlink" x="0px" y="0px"
	 viewBox="0 0 686.8 179.7" style="enable-background:new 0 0 686.8 179.7;" xml:space="preserve">
<style type="text/css">
	.st0{fill:#FFFFFF;}
</style>
<path class="st0" d="M129.7,169l-45.1,10.6c-0.7,0.2-1.3-0.7-0.9-1.3l96.3-143c0.1-0.2,0.3-0.3,0.5-0.3l45-10.6
	c0.7-0.2,1.3,0.7,0.9,1.3l-96.2,143C130.1,168.9,129.9,169,129.7,169z"/>
<path class="st0" d="M233.5,144.6l-45,10.6c-0.7,0.2-1.3-0.7-0.9-1.3l96.3-143c0.1-0.2,0.3-0.3,0.5-0.3l45-10.6
	c0.7-0.2,1.3,0.7,0.9,1.3L234,144.4C233.9,144.5,233.7,144.6,233.5,144.6z"/>
<path class="st0" d="M202.5,125.5l-45,10.6c-0.7,0.2-1.3-0.7-0.9-1.3l75-111.5c0.1-0.2,0.3-0.3,0.5-0.3l45-10.6
	c0.7-0.2,1.3,0.7,0.9,1.3l-75,111.5C202.9,125.3,202.7,125.5,202.5,125.5z"/>
<g>
	<path class="st0" d="M363.6,64.5c-0.2-2.5-1.1-4.4-2.8-5.8c-1.7-1.4-4.2-2.1-7.5-2.1c-2.1,0-3.9,0.3-5.2,0.8
		c-1.4,0.5-2.4,1.2-3,2.1c-0.6,0.9-1,1.9-1,3c-0.1,0.9,0.1,1.8,0.5,2.5c0.4,0.7,1,1.4,1.8,2c0.8,0.6,1.9,1.1,3.3,1.6
		c1.3,0.5,2.9,0.9,4.7,1.3l6.3,1.3c4.2,0.9,7.9,2.1,10.9,3.5c3,1.5,5.5,3.2,7.4,5.2c1.9,2,3.3,4.2,4.2,6.7c0.9,2.5,1.4,5.2,1.4,8.1
		c0,5-1.3,9.3-3.8,12.8s-6,6.1-10.7,8c-4.6,1.8-10.2,2.7-16.6,2.7c-6.7,0-12.4-1-17.4-3c-4.9-2-8.8-5-11.5-9.1
		c-2.7-4.1-4.1-9.3-4.1-15.8h19.7c0.1,2.3,0.7,4.3,1.8,5.9c1,1.6,2.5,2.8,4.4,3.6c1.9,0.8,4.2,1.2,6.8,1.2c2.2,0,4.1-0.3,5.6-0.8
		c1.5-0.5,2.6-1.3,3.4-2.3c0.8-1,1.2-2.1,1.2-3.3c0-1.2-0.4-2.2-1.1-3.1c-0.7-0.9-1.9-1.7-3.6-2.4c-1.7-0.7-3.9-1.4-6.8-2l-7.6-1.6
		c-6.8-1.5-12.1-3.9-16-7.4c-3.9-3.5-5.8-8.2-5.8-14.1c0-4.9,1.3-9.1,3.9-12.8c2.6-3.6,6.3-6.5,10.9-8.5c4.7-2,10-3.1,16.1-3.1
		c6.2,0,11.5,1,16,3.1c4.5,2.1,8,5,10.4,8.7c2.5,3.7,3.7,8.1,3.7,13.1H363.6z"/>
	<path class="st0" d="M463.8,78.9c0,8.5-1.7,15.7-5,21.5c-3.3,5.8-7.8,10.3-13.4,13.3c-5.6,3-11.9,4.5-18.8,4.5
		c-7,0-13.3-1.5-18.9-4.5c-5.6-3-10.1-7.5-13.4-13.3c-3.3-5.8-5-13-5-21.5c0-8.5,1.6-15.7,5-21.5c3.3-5.8,7.8-10.3,13.4-13.3
		c5.6-3,11.9-4.5,18.9-4.5c6.9,0,13.2,1.5,18.8,4.5c5.6,3,10.1,7.4,13.4,13.3C462.1,63.2,463.8,70.4,463.8,78.9z M442.4,78.9
		c0-4.6-0.6-8.5-1.8-11.6c-1.2-3.2-3-5.5-5.3-7.2c-2.4-1.6-5.2-2.4-8.7-2.4s-6.3,0.8-8.7,2.4c-2.4,1.6-4.1,4-5.3,7.2
		c-1.2,3.2-1.8,7-1.8,11.6c0,4.6,0.6,8.5,1.8,11.6c1.2,3.2,3,5.5,5.3,7.2c2.4,1.6,5.3,2.4,8.7,2.4s6.3-0.8,8.7-2.4
		c2.4-1.6,4.1-4,5.3-7.2C441.8,87.3,442.4,83.5,442.4,78.9z"/>
	<path class="st0" d="M516.2,40.6H537v49c0,5.8-1.4,10.9-4.2,15.1c-2.8,4.2-6.6,7.5-11.6,9.8s-10.7,3.5-17.3,3.5
		c-6.6,0-12.4-1.2-17.3-3.5c-5-2.3-8.8-5.6-11.6-9.8c-2.8-4.2-4.1-9.3-4.1-15.1v-49h20.8v47.2c0,2.4,0.5,4.5,1.6,6.3
		c1,1.9,2.5,3.3,4.4,4.4c1.9,1,4,1.6,6.3,1.6c2.4,0,4.5-0.5,6.4-1.6s3.3-2.5,4.3-4.4c1-1.9,1.6-4,1.6-6.3V40.6z"/>
	<path class="st0" d="M611.1,40.6v76.5h-17.3l-27.7-40.2h-0.4v40.2h-20.8V40.6h17.6l27.2,40.1h0.6V40.6H611.1z"/>
	<path class="st0" d="M648.7,117.2h-29.4V40.6h29.1c7.9,0,14.7,1.5,20.4,4.6c5.7,3.1,10.2,7.4,13.3,13.2s4.7,12.6,4.7,20.5
		c0,8-1.6,14.8-4.7,20.5c-3.1,5.7-7.5,10.1-13.2,13.2C663.2,115.6,656.5,117.2,648.7,117.2z M640,99.5h7.9c3.8,0,7-0.6,9.7-1.8
		c2.7-1.2,4.7-3.3,6.1-6.3c1.4-3,2.1-7.1,2.1-12.5c0-5.3-0.7-9.5-2.1-12.5c-1.4-3-3.5-5.1-6.3-6.3c-2.8-1.2-6.1-1.8-10.1-1.8H640
		V99.5z"/>
</g>
<g>
	<path class="st0" d="M5.6,71.2h1.9v8.8c0,0.8-0.2,1.5-0.5,2s-0.7,1-1.3,1.3c-0.6,0.3-1.2,0.4-2,0.4c-0.7,0-1.3-0.1-1.9-0.4
		c-0.6-0.3-1-0.6-1.3-1.1C0.2,81.7,0,81.1,0,80.4h1.9c0,0.3,0.1,0.6,0.2,0.9s0.4,0.4,0.7,0.6c0.3,0.1,0.6,0.2,1,0.2
		c0.4,0,0.7-0.1,1-0.3c0.3-0.2,0.5-0.4,0.6-0.7c0.1-0.3,0.2-0.7,0.2-1.2V71.2z"/>
	<path class="st0" d="M14.2,83.5h-4V71.2h4.1c1.2,0,2.3,0.2,3.1,0.7c0.9,0.5,1.5,1.2,2,2.1c0.5,0.9,0.7,2,0.7,3.3
		c0,1.3-0.2,2.4-0.7,3.3c-0.5,0.9-1.1,1.6-2,2.1C16.5,83.3,15.4,83.5,14.2,83.5z M12,81.9h2c0.9,0,1.7-0.2,2.3-0.5
		c0.6-0.4,1.1-0.9,1.4-1.6c0.3-0.7,0.5-1.5,0.5-2.5c0-1-0.2-1.8-0.5-2.5c-0.3-0.7-0.8-1.2-1.4-1.5c-0.6-0.4-1.4-0.5-2.3-0.5H12V81.9
		z"/>
	<path class="st0" d="M27,71.2h2.3l3.9,9.6h0.1l3.9-9.6h2.3v12.4h-1.8v-8.9h-0.1L34,83.5h-1.5l-3.6-8.9h-0.1v9H27V71.2z"/>
	<path class="st0" d="M46,83.7c-0.9,0-1.7-0.2-2.3-0.6c-0.6-0.4-1.1-1-1.5-1.7c-0.3-0.7-0.5-1.5-0.5-2.5c0-0.9,0.2-1.8,0.5-2.5
		s0.9-1.3,1.5-1.7s1.4-0.6,2.3-0.6c0.7,0,1.3,0.1,1.9,0.4c0.6,0.3,1,0.6,1.3,1.1c0.3,0.5,0.5,1,0.6,1.6h-1.8
		c-0.1-0.4-0.3-0.8-0.7-1.1s-0.8-0.5-1.4-0.5c-0.5,0-0.9,0.1-1.3,0.4c-0.4,0.3-0.7,0.6-0.9,1.1c-0.2,0.5-0.3,1.1-0.3,1.7
		c0,0.7,0.1,1.3,0.3,1.8c0.2,0.5,0.5,0.9,0.9,1.1s0.8,0.4,1.3,0.4c0.3,0,0.7-0.1,0.9-0.2c0.3-0.1,0.5-0.3,0.7-0.5
		c0.2-0.2,0.3-0.5,0.4-0.9h1.8c-0.1,0.6-0.3,1.1-0.6,1.6c-0.3,0.5-0.8,0.8-1.3,1.1S46.7,83.7,46,83.7z"/>
	<path class="st0" d="M51.9,71.2h2.3l3.9,9.6h0.1l3.9-9.6h2.3v12.4h-1.8v-8.9h-0.1l-3.6,8.9h-1.5l-3.6-8.9h-0.1v9h-1.8V71.2z"/>
	<path class="st0" d="M68,72.8c-0.3,0-0.6-0.1-0.8-0.3c-0.2-0.2-0.3-0.5-0.3-0.8c0-0.3,0.1-0.6,0.3-0.8c0.2-0.2,0.5-0.3,0.8-0.3
		s0.6,0.1,0.8,0.3c0.2,0.2,0.3,0.5,0.3,0.8c0,0.3-0.1,0.6-0.3,0.8C68.5,72.7,68.3,72.8,68,72.8z M67,83.5v-9.3h1.8v9.3H67z"/>
	<path class="st0" d="M73.1,71.2v12.4h-1.8V71.2H73.1z"/>
	<path class="st0" d="M77.3,71.2v12.4h-1.8V71.2H77.3z"/>
	<path class="st0" d="M80.6,72.8c-0.3,0-0.6-0.1-0.8-0.3c-0.2-0.2-0.3-0.5-0.3-0.8c0-0.3,0.1-0.6,0.3-0.8c0.2-0.2,0.5-0.3,0.8-0.3
		s0.6,0.1,0.8,0.3c0.2,0.2,0.3,0.5,0.3,0.8c0,0.3-0.1,0.6-0.3,0.8C81.2,72.7,80.9,72.8,80.6,72.8z M79.7,83.5v-9.3h1.8v9.3H79.7z"/>
	<path class="st0" d="M85.7,78v5.5h-1.8v-9.3h1.7v1.5h0.1c0.2-0.5,0.5-0.9,1-1.2c0.5-0.3,1-0.4,1.7-0.4c0.6,0,1.2,0.1,1.7,0.4
		c0.5,0.3,0.8,0.7,1.1,1.2c0.3,0.5,0.4,1.2,0.4,1.9v5.9h-1.8v-5.7c0-0.7-0.2-1.2-0.5-1.6c-0.3-0.4-0.8-0.6-1.4-0.6
		c-0.4,0-0.8,0.1-1.1,0.3c-0.3,0.2-0.6,0.4-0.8,0.8C85.8,77.1,85.7,77.5,85.7,78z"/>
	<path class="st0" d="M99.5,72.8c-0.3,0-0.6-0.1-0.8-0.3c-0.2-0.2-0.3-0.5-0.3-0.8c0-0.3,0.1-0.6,0.3-0.8c0.2-0.2,0.5-0.3,0.8-0.3
		s0.6,0.1,0.8,0.3c0.2,0.2,0.3,0.5,0.3,0.8c0,0.3-0.1,0.6-0.3,0.8C100.1,72.7,99.8,72.8,99.5,72.8z M98.6,83.5v-9.3h1.8v9.3H98.6z"
		/>
	<path class="st0" d="M109.7,76.5l-1.6,0.3c-0.1-0.2-0.2-0.4-0.3-0.6c-0.1-0.2-0.3-0.3-0.6-0.5c-0.2-0.1-0.6-0.2-0.9-0.2
		c-0.5,0-0.9,0.1-1.3,0.3s-0.5,0.5-0.5,0.9c0,0.3,0.1,0.6,0.3,0.7s0.6,0.3,1.1,0.5l1.5,0.3c0.9,0.2,1.5,0.5,1.9,0.9
		c0.4,0.4,0.6,0.9,0.6,1.6c0,0.6-0.2,1-0.5,1.5c-0.3,0.4-0.8,0.8-1.3,1c-0.6,0.2-1.2,0.4-2,0.4c-1,0-1.9-0.2-2.5-0.7
		c-0.7-0.4-1.1-1.1-1.2-1.9l1.7-0.3c0.1,0.5,0.3,0.8,0.7,1s0.8,0.3,1.3,0.3c0.6,0,1.1-0.1,1.4-0.4c0.4-0.2,0.5-0.6,0.5-0.9
		c0-0.3-0.1-0.5-0.3-0.7c-0.2-0.2-0.5-0.3-1-0.4l-1.6-0.3c-0.9-0.2-1.5-0.5-1.9-0.9s-0.6-1-0.6-1.6c0-0.5,0.2-1,0.5-1.4
		s0.7-0.7,1.3-1c0.5-0.2,1.2-0.3,1.9-0.3c1,0,1.8,0.2,2.4,0.6C109.1,75.2,109.5,75.8,109.7,76.5z"/>
</g>
</svg>
