<?xml version="1.0" encoding="utf-8"?>
<!-- Generator: Adobe Illustrator 27.3.1, SVG Export Plug-In . SVG Version: 6.00 Build 0)  -->
<svg version="1.1" id="Layer_1" xmlns="http://www.w3.org/2000/svg" xmlns:xlink="http://www.w3.org/1999/xlink" x="0px" y="0px"
	 viewBox="0 0 1797.8 700.2" style="enable-background:new 0 0 1797.8 700.2;" xml:space="preserve">
<g>
	<path d="M61.5,239v455.3H0V5.9h110.9l22,417l23.6-417H268v688.4h-75.8V243.9l-29.1,450.4H90.6L61.5,239z"/>
	<path d="M476.7,390.4v181.9c0,85.6-23.6,127.8-71.4,127.8h-47.2c-47.8,0-71.4-42.3-71.4-127.8V127.8C286.7,42.3,310.3,0,358.1,0
		h46.1c47.8,0,71.4,42.3,71.4,127.8v161.3h-75.8V142.6c0-16.7-4.4-24.6-13.7-24.6h-8.8c-9.3,0-13.7,7.9-13.7,24.6v415
		c0,16.7,4.4,24.6,13.7,24.6h9.9c9.3,0,13.7-7.9,13.7-24.6V390.4H476.7z"/>
	<path d="M555.9,239v455.3h-61.5V5.9h110.9l22,417l23.6-417h111.5v688.4h-75.8V243.9l-29.1,450.4H585L555.9,239z"/>
	<path d="M965.7,445.5v126.9c0,85.6-23.6,127.8-71.4,127.8h-42.8c-47.8,0-71.4-42.3-71.4-127.8V425.8h75.2v133.7
		c0,16.7,4.4,24.6,13.7,24.6h7.1c9.3,0,13.7-7.9,13.7-24.6v-82.6c0-21.6-3.8-32.5-13.2-44.3l-65.9-87.5
		c-23.6-30.5-30.8-59-30.8-108.2V127.8C780.1,42.3,803.7,0,851.5,0h41.7c47.8,0,71.4,42.3,71.4,127.8v125.9h-75.2V140.6
		c0-16.7-4.4-24.6-13.7-24.6h-6c-9.3,0-13.7,7.9-13.7,24.6v64.9c0,21.6,3.8,32.5,13.2,44.3l65.9,87.5
		C958.6,367.8,965.7,394.3,965.7,445.5z"/>
	<path d="M1102.5,700.2h-49.4c-47.8,0-71.4-42.3-71.4-127.8V127.8c0-85.6,23.6-127.8,71.4-127.8h49.4c47.8,0,71.4,42.3,71.4,127.8
		v444.5C1173.9,657.9,1150.3,700.2,1102.5,700.2z M1083.3,118h-11c-9.3,0-13.7,7.9-13.7,24.6v415c0,16.7,4.4,24.6,13.7,24.6h11
		c9.3,0,13.7-7.9,13.7-24.6v-415C1097,125.9,1092.6,118,1083.3,118z"/>
	<path d="M1381.3,572.3c0,85.6-23.6,127.8-71.4,127.8h-46.7c-47.8,0-71.4-42.3-71.4-127.8V5.9h76.9v551.7c0,16.7,4.4,24.6,13.7,24.6
		h8.2c9.3,0,13.7-7.9,13.7-24.6V5.9h76.9V572.3z"/>
	<path d="M1513.3,694.3l-48.9-374.7l1.1,175l1.1,199.6h-66.4V5.9h78.5l44.5,341.2l-1.1-198.6l-0.5-142.6h66.4v688.4H1513.3z"/>
	<path d="M1607.2,5.9h108.2c55.5,0,82.4,48.2,82.4,147.5v393.4c0,99.3-26.9,147.5-82.4,147.5h-108.2V5.9z M1684.1,576.3h15.4
		c14.8,0,21.4-11.8,21.4-38.4V162.3c0-26.6-6.6-38.4-21.4-38.4h-15.4V576.3z"/>
</g>
</svg>
