<?xml version="1.0" encoding="utf-8"?>
<!-- Generator: Adobe Illustrator 24.1.0, SVG Export Plug-In . SVG Version: 6.00 Build 0)  -->
<svg version="1.1" id="Layer_1" xmlns="http://www.w3.org/2000/svg" xmlns:xlink="http://www.w3.org/1999/xlink" x="0px" y="0px"
	 viewBox="0 0 246.8 179.8" style="enable-background:new 0 0 246.8 179.8;" xml:space="preserve">
<style type="text/css">
	.st0{fill:#FFFFFF;}
</style>
<path class="st0" d="M46.1,169.1L1,179.7c-0.7,0.2-1.3-0.7-0.9-1.3L96.4,35.4c0.1-0.2,0.3-0.3,0.5-0.3l45-10.6
	c0.7-0.2,1.3,0.7,0.9,1.3L46.6,168.8C46.5,169,46.3,169.1,46.1,169.1z"/>
<path class="st0" d="M149.9,144.7l-45,10.6c-0.7,0.2-1.3-0.7-0.9-1.3L200.3,11c0.1-0.2,0.3-0.3,0.5-0.3l45-10.6
	c0.7-0.2,1.3,0.7,0.9,1.3l-96.3,143.1C150.3,144.6,150.1,144.7,149.9,144.7z"/>
<path class="st0" d="M118.9,125.6l-45,10.6c-0.7,0.2-1.3-0.7-0.9-1.3l75-111.5c0.1-0.2,0.3-0.3,0.5-0.3l45-10.6
	c0.7-0.2,1.3,0.7,0.9,1.3l-75,111.5C119.3,125.4,119.1,125.6,118.9,125.6z"/>
</svg>
