<?xml version="1.0" encoding="utf-8"?>
<!-- Generator: Adobe Illustrator 27.5.0, SVG Export Plug-In . SVG Version: 6.00 Build 0)  -->
<svg version="1.1" id="Layer_1" xmlns="http://www.w3.org/2000/svg" xmlns:xlink="http://www.w3.org/1999/xlink" x="0px" y="0px"
	 viewBox="0 0 1349.4 673.8" style="enable-background:new 0 0 1349.4 673.8;" xml:space="preserve">
<style type="text/css">
	.st0{fill:#FFFFFF;}
</style>
<g>
	<path class="st0" d="M873.3,640.9c-53.5,1-116.8-9.8-189.7-32.4c-72.9-22.6-140.1-50.8-201.3-84.3
		c-61.3-33.6-102.1-65.1-122.5-94.6c46.3-35.4,89.4-72.2,129.7-110.4c40.3-38.4,73.2-75.5,98.9-111.4c25.7-35.9,39.5-67,41.3-93
		c0.7-11.6-0.7-21.3-4.3-29.3c-0.1-0.9-1-1.7-2.4-2.9c-11.1-20.7-27.9-34.5-50.6-41.6c-22.6-6.9-49.5-8.2-80.5-3.7
		c-58.5,8.5-126.4,33.5-203.9,75.3c-77.5,41.7-145.2,86-203.3,132.7C26.8,292-1.6,322.8,0.1,337.8c0.6,4.5,8.2,10.4,22.7,17.7
		c14.5,7.3,29,13.1,43.6,17.3c14.4,4.2,21.1,4.3,20.3,0.4c-1.4-5-1.9-10.2-1.6-15.2c2-30.5,28.2-67,78.4-109.4
		s109.3-80.7,177.4-114.7s126.8-54.6,176.3-61.7c40.4-5.8,68.3-1.2,83.7,13.9c0.4,3,0.6,5.5,0.4,7c-1.3,20.3-16.8,49.5-46.6,87.1
		c-29.8,37.7-67.7,78.1-113.9,120.9c-46.3,42.9-93,81.8-140.5,116.8l46-78.8c18.5-31.6,31.6-54.4,39.3-67.9
		c7.6-13.5,11.5-21.9,11.4-24.7c-0.9-9.5-4.2-18.1-9.9-25.7s-12.1-13.7-19.1-18s-12.4-6.3-16-5.8c-1.9,0.1-2.7,1.2-2.9,2.7v6.8
		c-1,14.2-10.4,37.7-28,70.2c-17.7,32.5-44.1,78.2-79.5,136.9l-41.4,68.9c-34.8,18.8-62.4,29.8-82.8,32.6c-4.6,0.7-8.9,0.9-13.1,0.7
		c-0.4-3.2-0.6-5.5-0.4-6.8c0.6-7.5,4-12.9,10.5-16.2c1.9-1,2.7-2.3,2.9-3.6c0-1.6-1.2-2.9-3.6-3.9c-2.6-0.9-5.8-1.2-9.6-0.6
		c-6.6,1-13.1,3.5-19.7,7.6c-9.3,5.5-14.2,10.9-14.5,16c-0.4,5.2,3.5,11.4,11.6,18.7c4.7,4.6,11.6,8.5,20.7,11.4
		c4.6,7,9.5,12.9,14.7,18c5.2,4.9,9.8,7,13.7,6.2c8.8-1.9,18.7-5,29.8-9.5c-17.3,33.8-26.3,57.1-27.2,70c-0.3,4,0.1,7,1.2,9.1
		c2,4.7,7.6,11.1,16.8,19.1c9.1,8.1,17.7,14.2,25.7,18.8c8.1,4.6,12.2,4.9,12.5,0.9l0.3-10.4c2-29.5,22.7-81.5,62.1-156.3
		c16-9.8,32.1-20.3,48.3-31.6c18.5,25,50.6,49.5,96.3,73.5c45.6,24,92.2,44.4,139.5,61.3c47.5,16.8,79.8,26.6,97.2,29.5
		c52.6,8.5,96.5,13.4,131.6,14.7c35.1,1.4,62.8,0.6,83-2.3c7.3-1,13.1-2.2,17.5-3.5c4.5-1.3,7.3-2.4,8.8-3.5
		C875.1,641.4,874.9,640.8,873.3,640.9z"/>
	<path class="st0" d="M1107.8,124.3c-3,0.4-5,2-6.2,4.9c-9.2,24-23.3,50.9-42.7,81.1c-0.9,1.2-1.4,2.6-1.6,4.2
		c-0.3,3.5,2.3,6,7.9,7.8c5.6,1.7,11.4,2.2,17.4,1.3c2.2-0.3,4.5-1,7-1.6c3.3-1.6,8.8-6.3,16.1-14.1c7.5-7.9,13.9-16.2,19.8-25
		c5.8-8.8,8.8-15.7,8.8-20.4c0-7.8-1.6-14.7-4.6-20.7c-3.2-6.2-6.6-10.6-10.8-13.7C1114.7,125,1111.1,123.9,1107.8,124.3z"/>
	<path class="st0" d="M1344.3,199.1c-1.4,0.1-3,1-4.7,2.3c-13.4,9.3-33.5,26.2-60.2,50.5c4-10.8,6.2-19.8,6.8-27.3
		c0.4-6.5-0.3-11.8-2-16.1c-1-2.7-4.6-6-10.8-9.8c-6.2-3.7-13.1-6.9-20.7-9.2c-7.6-2.3-13.9-3.2-19.1-2.4c-1.6,0.3-3.2,0.7-5,1.6
		c-11.1,6-21.4,13.8-31.1,23.2c-8.2-3.9-14.5-5.5-19.4-4.7c-2.2,0.3-3.6,0.9-4.2,1.4c-6.9,5.4-13.9,12.5-21.1,21.2
		c-0.9-1.4-2.2-1.9-4.1-1.6c-1.6,0.1-3,1-4.9,2.3c-13.5,9.3-31.5,24.3-54.1,45c-22.6,20.6-45.3,42.7-68.4,66.1
		c16.7-33.2,36.2-63,59-89.3c2-2.2,0.7-4.9-3.9-8.1c-4.6-3.3-10.1-5.9-16.5-8.1c-6.3-2.2-10.5-2.9-12.4-2
		c-3.4,1.5-10.7,9.6-22.1,24.4c-0.1-1.3-0.4-2.5-0.9-3.4c-0.7-1.6-2-2.2-3.9-1.9c-1.2,0.1-2.7,0.9-4.6,1.9
		c-15,9.5-35.4,25.3-61,47.2c-25.6,21.9-51.2,45.2-76.8,69.7c22-41.4,48.5-87,79.4-136.7c31.1-49.8,60.4-93.2,88.1-130.6
		c27.7-37.4,48.2-59.5,61.5-66.4c3-1.6,4.7-3.6,4.9-6.3c0.3-4.3-2.6-9.2-8.6-14.7s-13.2-9.9-21.9-13.4c-8.6-3.3-16.4-4.6-23.3-3.6
		c-5.8,0.9-8.6,1.3-8.6,1.3s-1.6,1.9-4.7,6.2c-22.1,26-52.5,69.5-91,130.3s-73.5,119.6-104.8,176.4c-13.2,15.8-28.3,31.9-45.2,48.7
		c-16.8,16.7-33.4,31.8-49.5,45.3c0.9-12.7,6.9-27,18.1-43.3c11.2-16.2,25-31.8,41.4-46.4c16.2-14.8,32.4-26.3,48.2-34.7
		c2.2-1.2,1.2-4.9-2.9-11.2s-9.3-12.1-15.7-17.1c-6.4-5-12.1-7.2-17.3-6.5c-2,0.3-3.7,1-5,2.3c-14.7,12.3-28.4,25.3-41.2,38.9
		c0.1-5.9-1.8-8.5-5.7-8c-1.3,0.1-2.7,0.7-4.7,2.2c-13.1,9.3-31.3,24.6-54.4,45.9c-23,21.1-47,44.3-72,69.5
		c21.1-42.3,41.7-76.1,61.5-101.2c0.7-0.6,1-1.7,1.2-3.3c0.3-3.5-2.2-7.3-7-11.5c-4.9-4.2-10.8-7.6-17.4-10.2s-12.5-3.6-17.3-2.9
		c-2.7,0.3-4.9,1.3-6.5,2.9c-7.3,7.2-16.2,19.7-26.7,37.7c-1.3-3.3-4.3-7.3-9.2-12.2c-4.9-4.9-10.5-9.1-16.7-12.2
		c-6.2-3.2-11.8-4.5-17-3.7c-2.7,0.3-5.3,1.4-7.9,3.5c-22.1,18.5-41.8,39.4-59.1,62.4c-17.3,23.2-30.6,45.2-40.3,66
		s-15,37.7-15.8,50.6c-0.6,8.6,0.7,14.2,4.2,17l0.4,0.3c-0.9,3.6,0.7,7.9,4.9,13.2c4,5.3,9.2,9.8,15.4,13.4
		c6.2,3.6,11.6,5.2,16.1,4.5c3.9-0.6,6.6-2.4,8.1-5.9c7.8-17.1,30.3-49.9,68-98.6c-10.8,26.3-16.5,45-17.3,55.9
		c-0.1,2.4-0.1,4,0.1,4.7c0.4,2.6,3.7,6.9,10.1,13.1c6.3,6,12.5,10.9,18.7,14.4s9.6,3.6,10.5,0.3c18.8-29.9,44.4-65.6,76.9-107.1
		c27.3-35.1,52.1-59.1,74.3-72c-19.1,23.9-34.1,46.3-45,67.3c-10.9,21.1-16.8,37.7-17.7,49.8c-0.4,6.9,0.7,11.5,3.6,13.8
		c-1.4,3.6-0.3,8.1,3.6,13.4c3.7,5.3,8.8,9.9,15,13.7c6.2,3.9,11.8,5.3,17,4.6c3.9-0.6,7-2.6,9.3-6.2c8.8-13.8,20-30.1,33.8-48.9
		s27.3-35.1,40.8-48.7c-17,33.8-25.7,55.4-26.3,64.7c-0.4,5.3,3.2,10.5,10.8,15.5c7.5,5,15.5,8.9,24,11.4s12.9,2.6,13.4,0.4v-0.4
		c0.9-5.2,12.2-22.3,34.1-51.3c21.7-29,45.7-56.9,71.9-83.8c23.1-23.6,43.5-39.6,61.2-47.8c-17.2,24.2-33.2,48.6-48,73.1
		c-16.5,27.5-24.4,45-23.7,52.6c0.6,8.6,5.6,16.2,14.8,22.7c9.2,6.6,18.5,10.4,28,11.4c0.3,0,0.9-0.4,1.9-1.4
		c0-1.3,10.5-17,31.3-46.7c20.8-29.7,43.3-58.5,67.6-86c18-20.4,34.7-35.5,49.8-45.2c-10.2,16.7-19.1,34-26.8,51.9
		c-9.5,22.6-14.8,41.8-16,57.9c-0.4,5.6,0,10.9,1.2,16.1c1.2,4.9,4.7,9.6,10.5,14.2s11.6,7.9,17.8,9.9c4.6,2,11.1,3.3,19.4,4.2
		c8.3,0.9,15.4,0.7,21.1-0.4c2.7-0.7,9.3-6.5,20-17.3c10.6-10.8,22.6-24.4,35.9-41c13.4-16.5,25.6-33.4,37-50.3
		c38.1-46,68.3-73.6,90.7-82.7c3.5-1.6,6.2-4.3,8.2-8.3c2.2-4,3.3-8.2,3.6-12.5C1350,201.5,1348.2,198.5,1344.3,199.1z M584.4,375.5
		c-18.4,22.9-37.2,43.3-56.2,61.5c3.3-13.8,10.1-28.5,20.4-44c10.4-15.5,22.4-30.2,36.5-43.7c13.9-13.7,27.9-24.4,41.6-32.5
		C616.9,333.1,602.8,352.6,584.4,375.5z M1243.3,223.7c-1,13.9-9.9,34.2-26.7,61c-17,26.7-45.4,61-85.6,102.5
		c6.3-21.1,15.8-44,28.9-68.7s32.2-52.5,57.7-83.5c2.9-3.6,0.6-8.8-7-15.4c8.8-6.6,17-10.4,24.4-11.4c2.3-0.4,4.5,0.7,6.2,3.5
		C1243,214.3,1243.7,218.3,1243.3,223.7z"/>
</g>
</svg>
